<?xml version="1.0" encoding="UTF-8"?><svg xmlns="http://www.w3.org/2000/svg" version="1.1" viewBox="0 0 192 192"><path d="M141.5,89c-.8-.4-1.7-.8-2.5-1.1-1.5-27.3-16.4-42.9-41.5-43.1-.1,0-.2,0-.3,0-15,0-27.4,6.4-35.1,18l13.8,9.5c5.7-8.7,14.7-10.5,21.3-10.5s.2,0,.2,0c8.2,0,14.5,2.5,18.5,7.1,2.9,3.4,4.9,8.1,5.9,14-7.3-1.2-15.2-1.6-23.7-1.1-23.8,1.4-39.1,15.3-38.1,34.6.5,9.8,5.4,18.2,13.7,23.7,7,4.7,16.1,6.9,25.6,6.4,12.5-.7,22.2-5.4,29-14.1,5.2-6.6,8.5-15.2,9.9-25.9,5.9,3.6,10.3,8.3,12.8,14,4.1,9.6,4.4,25.5-8.5,38.4-11.3,11.3-24.9,16.2-45.5,16.4-22.8-.2-40.1-7.5-51.3-21.7-10.5-13.4-15.9-32.6-16.1-57.3.2-24.7,5.6-44,16.1-57.3,11.2-14.3,28.5-21.6,51.3-21.7,23,.2,40.5,7.5,52.2,21.8,5.7,7,10,15.9,12.9,26.2l16.1-4.3c-3.4-12.7-8.9-23.6-16.2-32.7C147,9.6,125.2.2,97.1,0h-.1c-28.1.2-49.7,9.6-64.2,28.1-12.9,16.4-19.6,39.2-19.8,67.9h0c0,0,0,.1,0,.1.2,28.6,6.9,51.4,19.8,67.9,14.5,18.4,36.1,27.9,64.2,28.1h.1c25-.2,42.6-6.7,57-21.2,19-18.9,18.4-42.7,12.1-57.3-4.5-10.5-13-18.9-24.7-24.6ZM98.4,129.5c-10.4.6-21.3-4.1-21.8-14.1-.4-7.4,5.3-15.7,22.5-16.7,2-.1,3.9-.2,5.8-.2,6.2,0,12.1.6,17.4,1.8-2,24.7-13.6,28.7-23.8,29.3Z"/></svg>