<?xml version="1.0" encoding="utf-8"?>
<!-- Generator: Adobe Illustrator 27.3.1, SVG Export Plug-In . SVG Version: 6.00 Build 0)  -->
<svg version="1.1" id="Layer_1" xmlns="http://www.w3.org/2000/svg" xmlns:xlink="http://www.w3.org/1999/xlink" x="0px" y="0px"
	 viewBox="0 0 26.8 26.8" style="enable-background:new 0 0 26.8 26.8;" xml:space="preserve">
<path d="M23.8,0H3C1.3,0,0,1.3,0,3v20.8c0,1.6,1.3,3,3,3h20.8c1.6,0,3-1.3,3-3V3C26.8,1.3,25.5,0,23.8,0z M13.4,21.6
	c4.6,0,8.2-3.7,8.2-8.2c0-0.5-0.1-1-0.2-1.5h2.4v10.7c0,0.6-0.5,1-1,1H4c-0.6,0-1-0.5-1-1V11.9h2.3c-0.1,0.5-0.2,1-0.2,1.5
	C5.1,17.9,8.8,21.6,13.4,21.6L13.4,21.6z M8.2,13.4c0-2.8,2.3-5.2,5.2-5.2c2.8,0,5.2,2.3,5.2,5.2s-2.3,5.2-5.2,5.2
	C10.5,18.5,8.2,16.2,8.2,13.4z M22.8,7.4h-2.4c-0.6,0-1-0.5-1-1V4c0-0.6,0.5-1,1-1h2.4c0.6,0,1,0.5,1,1v2.4
	C23.8,7,23.4,7.4,22.8,7.4z"/>
</svg>
