<?xml version="1.0" encoding="utf-8"?>
<!-- Generator: Adobe Illustrator 27.3.1, SVG Export Plug-In . SVG Version: 6.00 Build 0)  -->
<svg version="1.1" id="Layer_1" xmlns="http://www.w3.org/2000/svg" xmlns:xlink="http://www.w3.org/1999/xlink" x="0px" y="0px"
	 viewBox="0 0 25.3 25.3" style="enable-background:new 0 0 25.3 25.3;" xml:space="preserve">
<path d="M5.8,8.4v16.3H0.3V8.4C0.3,8.4,5.8,8.4,5.8,8.4z M6.1,3.4c0,0.8-0.3,1.5-0.8,2C4.7,5.9,4,6.2,3,6.2h0
	c-0.9,0-1.6-0.3-2.2-0.8C0.3,4.9,0,4.2,0,3.4c0-0.8,0.3-1.5,0.9-2s1.3-0.8,2.2-0.8c0.9,0,1.6,0.3,2.2,0.8C5.8,1.9,6.1,2.6,6.1,3.4
	L6.1,3.4z M25.3,15.4v9.4h-5.4V16c0-1.2-0.2-2.1-0.7-2.7c-0.4-0.7-1.1-1-2.1-1c-0.7,0-1.3,0.2-1.7,0.6c-0.5,0.4-0.8,0.8-1,1.4
	c-0.1,0.3-0.2,0.8-0.2,1.3v9.1H8.8c0-4.4,0-7.9,0-10.7s0-4.4,0-4.9l0-0.8h5.4v2.4h0c0.2-0.4,0.4-0.7,0.7-0.9
	c0.2-0.3,0.5-0.5,0.9-0.9c0.4-0.3,0.9-0.5,1.4-0.7S18.4,8,19.1,8c1.9,0,3.4,0.6,4.5,1.9S25.3,13,25.3,15.4L25.3,15.4z"/>
</svg>
