<?xml version="1.0" encoding="utf-8"?>
<!-- Generator: Adobe Illustrator 27.3.1, SVG Export Plug-In . SVG Version: 6.00 Build 0)  -->
<svg version="1.1" id="Layer_1" xmlns="http://www.w3.org/2000/svg" xmlns:xlink="http://www.w3.org/1999/xlink" x="0px" y="0px"
	 viewBox="0 0 28.1 28.1" style="enable-background:new 0 0 28.1 28.1;" xml:space="preserve">
<path d="M28.1,5.4c-0.8,1.2-1.8,2.2-2.9,3c0,0.2,0,0.4,0,0.8c0,1.5-0.2,3.1-0.7,4.6s-1.1,3-2.1,4.4c-0.9,1.4-2,2.7-3.3,3.8
	c-1.3,1.1-2.8,2-4.6,2.6s-3.7,1-5.8,1c-3.2,0-6.2-0.9-8.9-2.6C0.4,23,0.9,23,1.4,23c2.7,0,5.1-0.8,7.2-2.5c-1.2,0-2.4-0.4-3.4-1.2
	c-1-0.7-1.7-1.7-2-2.8c0.4,0.1,0.8,0.1,1.1,0.1c0.5,0,1-0.1,1.5-0.2c-1.3-0.3-2.4-0.9-3.3-2s-1.3-2.3-1.3-3.7v-0.1
	c0.8,0.5,1.7,0.7,2.6,0.7C3,10.9,2.3,10.2,1.9,9.4S1.2,7.6,1.2,6.6c0-1,0.3-2,0.8-2.9C3.4,5.5,5.2,6.9,7.2,8s4.3,1.7,6.6,1.8
	c-0.1-0.5-0.1-0.9-0.1-1.3c0-1.6,0.6-3,1.7-4.1s2.5-1.7,4.1-1.7c1.7,0,3.1,0.6,4.2,1.8c1.3-0.2,2.5-0.7,3.7-1.4
	c-0.4,1.4-1.3,2.4-2.5,3.2C25.9,6.1,27,5.8,28.1,5.4L28.1,5.4z"/>
</svg>
